# xmcd CD database file
#
# Track frame offsets:
#	150
#	17850
#	32137
#	51680
#	70910
#	85498
#	100446
#	117243
#	137917
#	156817
#
# Disc length: 2294 seconds
#
# Revision: 0
# Processed by: cddbd v1.5.2PL0 Copyright (c) Steve Scherf et al.
# Submitted via: CDex 1.51
#
DISCID=9208f40a
DTITLE=Jeremy Pinnell - Oh/KY
DYEAR=2015
DGENRE=Country
TTITLE0=The Way Country Sounds
TTITLE1=Rodeo
TTITLE2=Loose Women
TTITLE3=Big Bright World
TTITLE4=Sleep Song
TTITLE5=Light Me Up
TTITLE6=Outlaw Life
TTITLE7=Them Days and Nights
TTITLE8=Cold Cold WInd
TTITLE9=Angel of Mine
EXTD=YEAR: 2015
EXTT0=
EXTT1=
EXTT2=
EXTT3=
EXTT4=
EXTT5=
EXTT6=
EXTT7=
EXTT8=
EXTT9=
PLAYORDER=
